<?xml version="1.0" standalone="no"?>
<!DOCTYPE svg PUBLIC "-//W3C//DTD SVG 20010904//EN"
 "http://www.w3.org/TR/2001/REC-SVG-20010904/DTD/svg10.dtd">
<svg version="1.0" xmlns="http://www.w3.org/2000/svg"
 width="1024.000000pt" height="1024.000000pt" viewBox="0 0 1024.000000 1024.000000"
 preserveAspectRatio="xMidYMid meet">
<metadata>
Created by potrace 1.14, written by Peter Selinger 2001-2017
</metadata>
<g transform="translate(0.000000,1024.000000) scale(0.100000,-0.100000)"
fill="#000000" stroke="none">
<path d="M4770 9435 c-762 -79 -1468 -347 -2050 -779 -194 -144 -372 -308
-418 -386 -24 -40 -27 -55 -27 -136 0 -88 1 -92 38 -148 21 -31 58 -71 82 -88
50 -35 51 -26 -15 -157 -69 -137 -162 -392 -191 -521 -31 -139 -19 -124 -110
-145 -158 -36 -284 -116 -378 -243 -64 -87 -96 -158 -118 -267 -10 -47 -23
-85 -29 -85 -6 0 -45 -22 -86 -49 -89 -58 -146 -135 -181 -245 -20 -66 -22
-89 -22 -341 0 -294 6 -339 62 -455 33 -69 130 -166 206 -205 42 -22 59 -37
63 -55 13 -64 46 -154 70 -193 98 -156 227 -245 417 -289 l98 -22 -3 -65 -3
-66 -43 -7 c-51 -9 -102 -38 -136 -79 l-26 -30 -75 56 c-105 77 -183 118 -300
156 -91 29 -112 32 -235 33 -115 1 -146 -2 -210 -23 -130 -40 -206 -86 -301
-181 -71 -71 -94 -102 -133 -181 -59 -120 -81 -238 -72 -384 14 -244 106 -419
347 -657 77 -76 139 -146 139 -156 0 -9 15 -49 34 -87 96 -198 292 -403 541
-564 l80 -53 6 -366 c5 -363 6 -368 32 -455 118 -385 445 -644 877 -697 56 -7
905 -10 2510 -10 2610 0 2516 -2 2685 51 84 26 221 93 290 143 131 94 263 252
325 389 69 152 73 186 78 582 l4 360 96 65 c289 194 532 471 690 786 27 55 60
132 72 173 12 40 49 133 82 205 128 279 200 460 228 580 25 101 27 294 5 379
-49 188 -196 343 -383 405 -155 51 -438 39 -597 -24 -17 -7 -16 -3 7 24 34 41
68 132 68 182 0 38 2 41 80 91 98 62 152 122 196 214 48 101 57 184 50 470 -6
250 -14 303 -57 392 -30 63 -132 162 -195 191 l-50 24 -13 73 c-28 166 -150
340 -308 435 -58 35 -165 74 -233 84 l-45 7 -23 102 c-40 171 -101 341 -188
518 l-83 169 44 41 c102 94 126 221 65 345 -27 55 -51 82 -158 178 -196 176
-330 278 -516 393 -513 318 -1054 505 -1706 589 -166 22 -771 27 -950 9z m780
-285 c666 -54 1284 -270 1825 -637 209 -142 465 -359 465 -394 0 -23 -43 -69
-62 -68 -11 0 -11 2 0 6 10 4 9 9 -5 20 -10 8 -12 12 -5 8 8 -4 11 1 9 15 -2
12 -19 29 -43 41 -21 11 -44 28 -51 36 -11 14 -15 14 -30 2 -16 -13 -17 -12
-4 4 12 15 11 21 -10 43 -12 13 -29 22 -36 20 -7 -3 -12 0 -10 7 1 7 -9 12
-23 12 -18 0 -25 6 -25 20 0 22 -42 48 -65 39 -8 -3 -12 -2 -8 1 9 9 -25 41
-99 92 -47 32 -68 41 -77 34 -9 -8 -13 -7 -13 4 0 8 5 11 11 8 8 -4 8 -3 0 6
-6 6 -25 13 -43 16 -34 4 -55 15 -30 15 10 1 9 3 -3 11 -12 7 -23 6 -37 -3
-17 -10 -23 -10 -33 0 -11 11 -10 12 4 7 9 -4 22 -4 28 0 17 11 -10 37 -33 31
-11 -3 -36 6 -57 19 -21 13 -42 21 -46 17 -5 -4 -3 0 4 9 10 14 8 18 -17 29
-17 7 -33 10 -36 9 -4 -2 -11 4 -16 13 -6 10 -27 21 -49 24 -22 4 -38 10 -35
14 8 13 -91 53 -116 45 -17 -4 -20 -3 -10 3 11 8 7 14 -19 27 -18 9 -29 12
-26 6 4 -6 4 -11 -1 -11 -4 0 -25 -4 -46 -9 -27 -6 -37 -6 -36 3 3 25 -2 35
-18 39 -13 3 -10 5 7 6 21 2 18 5 -20 20 -25 10 -50 16 -57 14 -7 -3 -13 0
-13 6 0 6 -5 11 -11 11 -5 0 -8 -4 -4 -9 3 -5 1 -12 -5 -16 -9 -6 -14 8 -11
28 1 8 -60 -1 -69 -10 -3 -3 5 -3 17 0 13 3 25 2 28 -2 4 -7 -36 -7 -107 -2
-27 2 -22 31 5 31 12 0 29 5 37 11 13 9 12 10 -2 5 -10 -3 -18 -2 -18 2 0 4
-12 7 -27 6 -16 -1 -27 -6 -26 -12 1 -5 -7 -12 -17 -15 -11 -3 -18 -2 -15 2 2
5 -7 6 -22 3 -21 -4 -23 -6 -9 -14 13 -7 13 -12 3 -22 -7 -8 -18 -11 -27 -6
-8 4 -22 5 -30 3 -13 -4 -13 -3 0 6 8 6 24 8 35 6 17 -4 17 -4 -2 6 -35 18
-37 38 -2 34 16 -2 29 0 29 5 0 11 4 11 -75 14 -33 1 -53 0 -45 -2 8 -3 21
-11 28 -19 11 -11 11 -13 0 -13 -8 0 -19 5 -26 12 -9 9 -12 9 -12 0 0 -6 9
-16 21 -22 11 -7 18 -14 15 -17 -3 -3 -12 0 -20 6 -8 7 -21 9 -27 5 -8 -5 -9
-3 -4 6 6 10 2 12 -17 8 -22 -4 -24 -2 -20 16 5 19 4 19 -11 7 -10 -8 -17 -9
-17 -3 0 12 -39 10 -59 -2 -16 -10 -24 -2 -27 31 -2 15 0 22 4 16 5 -8 13 -9
22 -3 13 8 12 10 -2 10 -10 0 -18 5 -18 11 0 8 -4 8 -13 0 -19 -15 -69 8 -61
29 4 12 3 12 -7 3 -10 -10 -9 -16 1 -28 11 -13 10 -14 -4 -9 -9 3 -16 9 -16
13 0 4 -9 7 -20 7 -11 0 -20 -7 -20 -14 0 -9 -6 -12 -16 -8 -9 3 -25 6 -35 6
-11 0 -18 4 -15 9 4 5 -10 8 -31 6 -34 -2 -35 -1 -17 12 18 13 17 14 -11 7
-16 -4 -33 -11 -36 -17 -4 -5 -9 -5 -13 2 -4 6 -28 11 -54 10 -35 0 -42 -3
-27 -9 11 -4 29 -7 40 -6 11 2 14 1 7 -1 -7 -3 -9 -9 -6 -15 5 -8 -8 -9 -41
-5 -26 4 -66 8 -89 8 -39 1 -39 2 -11 9 l30 7 -35 10 -35 11 34 1 c43 1 36 10
-14 16 -21 3 -44 0 -52 -6 -10 -9 -19 -9 -36 0 -14 8 -78 13 -170 14 -81 1
-147 5 -147 10 0 4 -4 7 -10 7 -5 0 -10 -7 -10 -15 0 -8 -2 -15 -4 -15 -2 0
-12 -3 -22 -7 -12 -4 -15 -3 -10 5 4 7 2 12 -4 12 -6 0 -8 5 -4 13 6 9 4 9 -8
-1 -10 -8 -19 -9 -22 -3 -4 6 -18 5 -39 -1 -70 -23 -74 -27 -29 -27 23 -1 42
-5 42 -11 0 -5 -16 -10 -36 -10 -24 0 -33 -4 -28 -12 5 -8 -2 -9 -26 -5 -20 4
-38 2 -47 -4 -7 -7 -16 -9 -20 -5 -3 3 0 6 8 7 8 1 3 5 -11 9 -22 7 -21 8 13
9 42 1 50 16 12 23 -14 3 -25 1 -25 -3 0 -5 -8 -9 -17 -8 -11 0 -13 3 -5 6 17
7 15 23 -2 23 -8 0 -16 -7 -18 -16 -2 -13 -8 -12 -30 9 -15 14 -24 28 -21 31
4 3 2 6 -4 6 -6 0 -17 -8 -24 -17 -12 -14 -12 -16 2 -11 9 3 22 2 30 -3 12 -7
12 -9 -1 -9 -10 0 -11 -3 -3 -8 6 -4 -34 -6 -90 -4 -68 1 -103 -1 -108 -9 -5
-9 -15 -9 -39 0 -39 13 -64 14 -35 1 15 -7 9 -9 -22 -6 -24 2 -43 0 -43 -5 0
-4 -14 -11 -32 -14 l-32 -7 38 -20 c36 -19 66 -19 66 0 0 5 -12 7 -27 5 l-28
-5 29 16 c15 9 34 16 42 16 14 0 15 -25 2 -46 -9 -14 -108 -18 -108 -4 0 5 -7
10 -15 10 -8 0 -15 -4 -15 -10 0 -10 -16 -6 -68 17 -24 10 -36 11 -50 3 -14
-9 -13 -10 7 -4 17 4 21 3 16 -6 -5 -9 -2 -10 14 -5 12 4 21 2 21 -4 0 -6 -7
-11 -15 -11 -8 0 -15 -4 -15 -10 0 -5 -7 -10 -16 -10 -8 0 -13 4 -9 9 3 6 -12
8 -35 7 -21 -2 -37 1 -34 5 11 19 -16 8 -30 -12 -12 -17 -22 -20 -61 -17 -39
3 -43 1 -28 -9 9 -7 26 -10 37 -7 18 6 19 5 8 -9 -12 -14 -17 -14 -47 -1 -19
8 -40 14 -47 14 -7 -1 0 -7 17 -14 28 -12 25 -12 -40 -13 -41 0 -70 -4 -73
-11 -2 -6 -10 -8 -19 -5 -10 4 -14 2 -10 -4 7 -12 -14 -23 -42 -23 -10 0 -18
-6 -18 -14 0 -9 7 -12 16 -9 12 5 11 1 -4 -14 -15 -15 -21 -16 -23 -6 -4 16
-14 17 -30 1 -7 -7 -12 -8 -12 -2 0 6 10 16 23 22 19 10 19 11 2 8 -33 -5 -55
-17 -55 -31 0 -19 -38 -29 -55 -15 -12 10 -15 10 -15 0 0 -6 -6 -10 -12 -7 -7
2 -21 0 -32 -5 -17 -9 -16 -11 11 -25 33 -16 41 -43 10 -35 -14 4 -15 7 -6 13
24 14 -39 31 -64 17 -12 -7 -28 -11 -36 -9 -8 1 -10 -2 -5 -10 5 -8 3 -10 -5
-5 -7 5 -20 1 -29 -7 -9 -8 -38 -22 -64 -32 -27 -10 -45 -22 -41 -28 3 -6 1
-7 -5 -3 -6 4 -30 -3 -53 -15 -33 -16 -39 -23 -28 -31 10 -7 8 -8 -9 -3 -15 4
-24 1 -28 -9 -3 -9 -10 -13 -15 -10 -5 3 -20 -7 -35 -21 -14 -14 -29 -23 -33
-21 -4 3 -13 1 -21 -5 -10 -6 -11 -9 -2 -9 6 0 12 -4 12 -9 0 -5 -9 -7 -20 -4
-18 5 -101 -46 -140 -87 -8 -9 -13 -11 -10 -5 3 6 -8 -4 -23 -22 -19 -22 -33
-30 -45 -26 -15 6 -15 4 -4 -9 12 -14 10 -16 -10 -10 -21 5 -22 4 -8 -14 14
-17 14 -18 -2 -6 -15 12 -23 9 -62 -20 -25 -18 -45 -41 -46 -51 0 -12 -6 -17
-18 -15 -26 4 -112 -69 -105 -89 4 -10 2 -14 -4 -10 -6 4 -13 1 -16 -5 -6 -21
-37 10 -37 37 0 66 450 407 756 573 411 224 897 379 1399 448 103 14 596 34
675 27 14 -1 86 -7 160 -13z m-987 -192 c4 -10 8 -9 16 2 5 8 13 11 17 7 10
-9 -2 -20 -24 -22 -9 0 -23 -4 -29 -8 -7 -4 -24 -5 -38 -1 l-26 6 23 13 c30
17 55 18 61 3z m204 -4 c-3 -3 -12 -4 -19 -1 -8 3 -5 6 6 6 11 1 17 -2 13 -5z
m576 -1 c-13 -2 -33 -2 -45 0 -13 2 -3 4 22 4 25 0 35 -2 23 -4z m415 -18 c-5
-14 -75 -18 -84 -4 -4 7 -3 9 3 6 5 -3 23 -2 39 3 34 10 47 8 42 -5z m-1273
-5 c11 -5 14 -9 7 -9 -7 -1 -11 -5 -8 -10 4 -5 -3 -7 -14 -4 -11 3 -20 12 -20
19 0 16 6 16 35 4z m132 4 c-3 -3 -12 -4 -19 -1 -8 3 -5 6 6 6 11 1 17 -2 13
-5z m1269 -9 c-3 -8 -1 -15 4 -15 6 0 10 4 10 10 0 5 16 0 37 -12 22 -14 31
-24 23 -26 -8 -3 -16 0 -18 6 -2 7 -13 10 -27 6 -12 -3 -26 -1 -29 5 -4 6 -21
8 -39 6 l-32 -5 33 12 c17 6 32 15 32 19 0 5 3 9 6 9 3 0 4 -7 0 -15z m-1163
-2 c-7 -2 -19 -2 -25 0 -7 3 -2 5 12 5 14 0 19 -2 13 -5z m1257 -13 c0 -5 -4
-10 -9 -10 -6 0 -13 5 -16 10 -3 6 1 10 9 10 9 0 16 -4 16 -10z m-1445 -10
c-3 -5 -12 -10 -18 -10 -7 0 -6 4 3 10 19 12 23 12 15 0z m52 4 c-3 -3 -12 -4
-19 -1 -8 3 -5 6 6 6 11 1 17 -2 13 -5z m-110 -20 c-3 -3 -12 -4 -19 -1 -8 3
-5 6 6 6 11 1 17 -2 13 -5z m-156 -16 c0 -10 2 -10 6 0 2 6 9 12 15 12 7 0 6
-5 -2 -14 -12 -15 -40 -11 -40 5 0 14 20 11 21 -3z m-188 -5 c-7 -2 -19 -2
-25 0 -7 3 -2 5 12 5 14 0 19 -2 13 -5z m-16 -26 c4 -6 -2 -8 -18 -4 -13 4
-31 7 -39 7 -12 0 -13 2 -1 9 15 10 48 3 58 -12z m53 13 c-8 -5 -22 -9 -30 -9
-10 0 -8 3 5 9 27 12 43 12 25 0z m44 -21 c-3 -6 -15 -9 -25 -6 -11 3 -19 2
-19 -2 0 -4 -9 -7 -21 -7 -19 0 -19 1 -3 13 22 16 78 18 68 2z m2102 -26 c-10
-10 -19 5 -10 18 6 11 8 11 12 0 2 -7 1 -15 -2 -18z m-2366 13 c0 -3 -4 -8
-10 -11 -5 -3 -10 -1 -10 4 0 6 5 11 10 11 6 0 10 -2 10 -4z m159 -5 c10 -6 3
-9 -22 -8 -23 1 -44 -6 -58 -19 -19 -16 -21 -17 -16 -2 4 12 2 15 -8 12 -8 -3
-22 -1 -32 5 -15 10 -14 10 8 5 15 -3 30 -1 33 5 9 13 75 14 95 2z m2442 -13
c0 -10 2 -10 6 0 2 6 11 12 19 12 8 0 11 -6 7 -16 -6 -17 -44 -15 -51 4 -2 6
1 12 7 12 6 0 11 -6 12 -12z m-146 -8 c3 -6 -1 -7 -9 -4 -18 7 -21 14 -7 14 6
0 13 -4 16 -10z m-2412 -17 c-7 -2 -19 -2 -25 0 -7 3 -2 5 12 5 14 0 19 -2 13
-5z m2492 -2 c-8 -13 26 -19 53 -9 13 4 21 4 18 -1 -3 -5 6 -16 20 -26 33 -22
26 -28 -15 -14 -25 9 -30 14 -19 21 9 7 6 8 -10 5 -13 -3 -37 -1 -55 5 -27 10
-29 12 -11 19 26 10 26 10 19 0z m-2560 -11 c17 -4 26 -9 20 -10 -5 -1 -19 -3
-30 -5 -26 -5 -65 5 -65 16 0 10 32 10 75 -1z m2825 -20 c0 -5 -2 -10 -4 -10
-3 0 -8 5 -11 10 -3 6 -1 10 4 10 6 0 11 -4 11 -10z m-2886 -8 c2 -4 -13 -9
-34 -9 -22 -1 -42 2 -45 8 -4 5 11 9 34 9 22 0 42 -4 45 -8z m-64 -22 c8 -5
11 -10 5 -10 -5 0 -17 5 -25 10 -8 5 -10 10 -5 10 6 0 17 -5 25 -10z m2830 0
c0 -5 -5 -10 -11 -10 -5 0 -7 5 -4 10 3 6 8 10 11 10 2 0 4 -4 4 -10z m-2924
-28 c1 -12 -3 -19 -7 -16 -5 3 -18 0 -29 -6 -11 -6 -20 -7 -20 -1 0 5 11 12
25 15 14 4 25 11 25 16 0 13 -17 13 -25 0 -8 -13 -25 -13 -25 -1 0 10 28 20
45 16 6 -1 11 -11 11 -23z m64 11 c-8 -3 -23 -10 -32 -15 -13 -6 -18 -5 -18 7
0 10 10 15 33 14 17 0 25 -3 17 -6z m1888 -17 c636 -83 1164 -273 1647 -592
124 -82 256 -184 337 -259 63 -59 205 -365 264 -568 43 -149 43 -163 4 -170
-16 -4 -48 -15 -70 -26 l-40 -19 -48 92 c-233 441 -631 825 -1115 1075 -343
177 -611 257 -1057 316 -153 21 -539 24 -685 6 -360 -44 -689 -135 -960 -265
-332 -159 -556 -315 -799 -554 -187 -185 -315 -357 -424 -569 l-52 -101 -39
19 c-21 10 -57 21 -79 25 l-40 6 15 67 c31 139 105 339 184 498 86 173 103
192 269 325 167 132 518 330 765 431 312 127 736 233 1091 272 171 19 659 13
832 -9z m1147 14 c-3 -5 -12 -10 -18 -10 -7 0 -6 4 3 10 19 12 23 12 15 0z
m40 0 c3 -5 1 -10 -4 -10 -6 0 -11 5 -11 10 0 6 2 10 4 10 3 0 8 -4 11 -10z
m-128 -16 c-3 -3 -12 -4 -19 -1 -8 3 -5 6 6 6 11 1 17 -2 13 -5z m71 -20 c20
-9 32 -18 25 -21 -6 -2 -29 5 -50 16 -46 24 -28 28 25 5z m-3263 -24 c-3 -5
-1 -10 6 -10 7 0 10 -3 6 -6 -9 -9 -28 6 -22 17 4 5 8 9 11 9 3 0 2 -4 -1 -10z
m3410 0 c-3 -5 -12 -10 -18 -10 -7 0 -6 4 3 10 19 12 23 12 15 0z m-3458 -6
c-3 -3 -12 -4 -19 -1 -8 3 -5 6 6 6 11 1 17 -2 13 -5z m32 -18 c10 -12 8 -13
-8 -9 -12 3 -18 9 -15 14 7 12 10 11 23 -5z m71 10 c0 -2 -7 -6 -15 -10 -8 -3
-15 -1 -15 4 0 6 7 10 15 10 8 0 15 -2 15 -4z m3425 -6 c3 -5 2 -10 -4 -10 -5
0 -13 5 -16 10 -3 6 -2 10 4 10 5 0 13 -4 16 -10z m-44 -23 c-10 -9 -11 -8 -5
6 3 10 9 15 12 12 3 -3 0 -11 -7 -18z m-46 3 c3 -6 -1 -7 -9 -4 -18 7 -21 14
-7 14 6 0 13 -4 16 -10z m40 -28 c-3 -3 -11 0 -18 7 -9 10 -8 11 6 5 10 -3 15
-9 12 -12z m-3631 -23 c-6 -11 -31 -12 -37 -1 -3 4 6 8 19 8 13 1 21 -2 18 -7z
m3714 -6 c-13 -16 -22 -17 -12 -1 5 8 2 9 -10 5 -9 -4 -15 -3 -11 2 3 6 14 9
25 8 14 -1 16 -4 8 -14z m67 -1 c-3 -3 -11 0 -18 7 -9 10 -8 11 6 5 10 -3 15
-9 12 -12z m-3738 -12 c-8 -13 -13 -15 -23 -6 -12 12 -3 23 20 23 11 0 12 -4
3 -17z m3703 -10 c8 -5 11 -10 5 -10 -5 0 -17 5 -25 10 -8 5 -10 10 -5 10 6 0
17 -5 25 -10z m52 -17 c-6 -2 -10 -9 -7 -14 4 -5 -1 -6 -10 -2 -13 5 -14 7 -3
14 7 5 18 8 23 8 6 0 4 -3 -3 -6z m33 -33 c3 -6 -1 -7 -9 -4 -18 7 -21 14 -7
14 6 0 13 -4 16 -10z m41 -5 c-1 -8 -5 -17 -8 -21 -5 -4 -4 16 1 34 3 9 9 -1
7 -13z m-1833 -212 c66 -4 97 -10 97 -18 0 -7 -9 -33 -20 -57 -47 -107 -63
-297 -36 -426 29 -141 126 -280 249 -361 81 -53 161 -81 258 -91 86 -8 147 -1
286 35 112 29 215 32 293 9 30 -9 103 -41 162 -71 206 -103 366 -110 571 -22
l72 30 23 -28 c56 -68 168 -246 213 -341 28 -56 71 -164 97 -240 l47 -137 0
-860 c0 -875 -2 -1012 -17 -1021 -4 -3 -5 3 -1 13 3 10 3 15 -1 11 -4 -3 -9
-17 -10 -30 -2 -12 -6 -34 -9 -48 -6 -21 -4 -20 8 5 l16 30 -6 -40 c-10 -62
-52 -180 -101 -285 -121 -255 -351 -515 -617 -698 -111 -76 -357 -201 -454
-231 -71 -21 -72 -21 -1277 -21 -1080 0 -1210 2 -1253 16 -56 19 -238 109
-337 166 -199 116 -452 347 -584 534 -110 154 -211 384 -232 530 -6 42 -10
437 -10 999 l0 931 31 99 c17 55 54 151 82 213 50 114 50 114 81 108 17 -3 72
-11 122 -17 115 -16 139 -8 303 101 348 229 640 365 863 400 84 13 108 30 108
76 0 35 -17 59 -50 69 -29 9 -226 -31 -328 -66 -89 -32 -239 -101 -303 -139
l-35 -22 -90 34 c-49 18 -120 51 -157 72 l-69 38 34 35 c57 60 204 180 296
241 249 168 511 291 786 368 100 28 368 86 373 80 9 -9 63 -180 73 -234 7 -34
10 -104 8 -159 -4 -102 -29 -187 -108 -373 -56 -134 -68 -197 -70 -371 l-1
-159 76 0 75 0 0 133 c0 161 14 224 93 417 67 163 84 222 92 320 8 92 -16 264
-51 368 -13 40 -24 74 -24 77 0 11 240 17 363 8z m2214 -28 c0 -8 -4 -12 -9
-9 -5 3 -6 10 -3 15 9 13 12 11 12 -6z m-1817 -26 c77 -14 271 -59 295 -69 11
-5 52 -19 90 -31 162 -51 270 -111 420 -234 80 -65 90 -72 80 -56 -6 10 -4 12
4 7 7 -5 10 -15 7 -23 -4 -11 -2 -13 9 -9 8 3 14 2 12 -3 -1 -4 19 -24 46 -45
26 -20 68 -52 94 -72 28 -21 54 -34 65 -31 10 3 16 1 12 -4 -3 -5 2 -9 11 -9
9 0 14 -4 11 -9 -9 -15 56 -41 75 -30 12 6 20 5 25 -3 5 -7 3 -8 -6 -3 -8 5
-11 3 -8 -6 3 -8 12 -13 21 -13 9 1 15 -3 14 -10 -1 -6 4 -10 12 -8 8 2 34
-16 57 -39 40 -40 42 -44 28 -60 -22 -24 -147 -52 -198 -44 -55 9 -166 48
-251 89 -105 51 -200 77 -296 83 -77 5 -97 2 -195 -27 -141 -43 -194 -50 -278
-39 -128 17 -236 101 -302 233 -32 66 -37 86 -41 168 -2 51 -7 100 -10 108 -8
20 -4 53 8 65 5 5 9 16 9 25 0 8 14 38 30 67 33 57 24 55 150 32z m1873 0 c-8
-8 -13 -7 -18 2 -5 8 -4 10 3 5 7 -4 12 -2 12 5 0 7 3 9 7 6 4 -4 2 -12 -4
-18z m-4935 -29 c-7 -10 -14 -17 -17 -15 -4 4 18 35 25 35 2 0 -1 -9 -8 -20z
m-58 -50 c0 -5 -5 -10 -11 -10 -5 0 -7 5 -4 10 3 6 8 10 11 10 2 0 4 -4 4 -10z
m130 6 c0 -2 -6 -9 -14 -15 -11 -9 -16 -9 -22 0 -4 7 -3 9 4 5 6 -3 13 -2 17
4 6 10 15 14 15 6z m-63 -22 c-3 -3 -12 -4 -19 -1 -8 3 -5 6 6 6 11 1 17 -2
13 -5z m2840 -226 c-3 -7 -5 -2 -5 12 0 14 2 19 5 13 2 -7 2 -19 0 -25z m1408
-278 c3 -5 2 -10 -4 -10 -5 0 -13 5 -16 10 -3 6 -2 10 4 10 5 0 13 -4 16 -10z
m-3591 -285 l118 -56 -124 -80 c-67 -45 -133 -85 -146 -90 -20 -8 -159 6 -170
16 -11 10 179 265 197 265 4 0 61 -25 125 -55z m-763 -434 c23 -23 29 -38 29
-71 0 -25 -4 -39 -10 -35 -5 3 -10 2 -10 -4 0 -5 6 -12 13 -14 8 -4 7 -6 -4
-6 -11 -1 -16 -11 -16 -33 0 -18 -5 -64 -11 -103 -6 -38 -12 -98 -12 -133 0
-35 -3 -61 -7 -59 -5 3 -6 -35 -5 -84 3 -65 1 -89 -8 -89 -9 0 -11 -21 -7 -77
3 -48 2 -62 -3 -38 -5 30 -7 16 -8 -57 -2 -73 1 -98 11 -98 9 0 9 -2 0 -8 -8
-5 -12 -37 -12 -97 2 -138 -4 -324 -8 -289 -4 30 -5 30 -60 31 -41 0 -51 -2
-39 -9 10 -6 26 -8 37 -5 11 3 19 0 19 -6 0 -7 -11 -13 -25 -13 -14 -1 -25 2
-25 7 0 5 -9 9 -19 9 -11 0 -22 6 -24 13 -3 6 -7 -24 -8 -68 l-3 -80 -6 70
c-8 103 -20 49 -23 -115 -1 -74 -4 224 -5 662 l-2 797 28 15 c17 10 56 15 110
16 79 0 85 -2 113 -29z m5468 14 c16 -8 31 -22 35 -30 3 -9 5 -314 5 -678 -1
-364 -5 -644 -9 -622 l-7 40 -3 -40 c-1 -28 -4 -34 -8 -20 -7 21 -19 25 -38
13 -6 -4 -17 2 -24 13 -19 26 -33 24 -25 -3 7 -22 6 -22 -10 -6 -27 25 -12 48
32 49 30 1 26 3 -20 9 -32 4 -64 13 -70 19 -8 8 -8 11 2 11 10 0 11 3 3 13 -6
7 -9 23 -5 35 3 12 1 22 -5 22 -6 0 -12 -8 -14 -17 -3 -10 -8 14 -12 54 -6 53
-11 70 -21 67 -7 -3 -15 3 -18 13 -3 10 -6 -38 -8 -107 -2 -69 -6 147 -9 480
-3 333 -2 619 3 636 5 22 18 37 40 48 41 20 148 21 186 1z m-5875 -91 c7 -19
8 -109 1 -116 -3 -3 -5 -292 -5 -642 0 -463 -3 -636 -11 -636 -6 0 -8 7 -5 16
4 11 2 15 -8 11 -12 -5 -14 3 -9 44 4 37 3 49 -8 49 -10 0 -10 3 -1 12 15 15
16 58 1 58 -8 0 -8 5 1 15 10 13 9 15 -8 15 -12 0 -24 5 -27 10 -3 6 -14 10
-23 10 -13 0 -13 -2 3 -14 18 -13 17 -14 -14 -21 -37 -8 -40 -6 -46 24 -7 40
-17 65 -31 78 -18 19 -70 27 -79 14 -4 -8 2 -10 19 -7 34 6 44 -12 11 -20 -31
-8 -35 -4 -45 38 -7 28 -8 25 -9 -26 -1 -33 -4 -57 -7 -53 -3 3 -8 79 -10 169
-1 90 -6 276 -9 415 -6 214 -4 260 9 306 30 104 144 220 244 251 60 19 59 19
66 0z m6176 -17 c59 -28 150 -119 181 -182 20 -42 25 -68 27 -162 3 -77 0
-113 -7 -113 -6 0 -11 -17 -11 -37 0 -21 -7 -51 -15 -67 -8 -15 -15 -53 -15
-82 0 -30 -4 -54 -8 -54 -12 0 -31 -153 -20 -165 13 -14 10 -25 -8 -25 -14 0
-15 -2 -3 -17 10 -12 11 -17 2 -20 -7 -2 -9 -11 -6 -20 4 -9 -1 -20 -12 -25
-14 -8 -15 -12 -4 -19 11 -7 9 -9 -7 -9 -12 0 -21 -7 -21 -15 0 -8 5 -15 11
-15 16 0 -46 -49 -64 -50 -10 -1 -11 -3 -2 -7 20 -8 14 -22 -8 -18 -15 3 -24
-3 -30 -21 -13 -34 -13 -33 11 -29 13 3 19 0 16 -8 -3 -11 -14 -13 -47 -8 -5
0 -7 8 -4 16 4 8 1 15 -5 15 -7 0 -11 -22 -11 -56 0 -46 -3 -55 -15 -50 -8 3
-15 1 -15 -4 0 -6 5 -10 10 -10 15 0 8 -112 -6 -117 -19 -6 -24 156 -24 794
l0 615 33 -7 c17 -4 52 -17 77 -28z m-5761 -226 c0 -49 3 -101 7 -115 4 -16 2
-26 -4 -26 -6 0 -13 -21 -15 -47 -2 -27 -4 -3 -5 53 -2 92 6 224 14 224 2 0 3
-40 3 -89z m18 -33 c-2 -24 -4 -5 -4 42 0 47 2 66 4 43 2 -24 2 -62 0 -85z m0
-200 c-2 -18 -4 -6 -4 27 0 33 2 48 4 33 2 -15 2 -42 0 -60z m-30 -140 c-2
-13 -4 -3 -4 22 0 25 2 35 4 23 2 -13 2 -33 0 -45z m30 -60 c-2 -24 -4 -5 -4
42 0 47 2 66 4 43 2 -24 2 -62 0 -85z m-911 -696 c-9 -8 -75 39 -94 66 -49 70
-54 104 -53 337 1 121 6 237 12 258 11 42 59 101 104 129 l30 18 3 -402 c1
-220 0 -403 -2 -406z m7072 777 c25 -18 51 -50 67 -83 l26 -54 -3 -248 -3
-249 -27 -46 c-23 -40 -61 -77 -105 -103 -10 -6 -13 78 -13 403 0 226 4 411 8
411 4 0 27 -14 50 -31z m-913 -418 c3 -5 1 -12 -5 -16 -5 -3 -10 1 -10 9 0 18
6 21 15 7z m-5248 -163 c-2 -13 -4 -3 -4 22 0 25 2 35 4 23 2 -13 2 -33 0 -45z
m5768 32 c3 -5 1 -10 -4 -10 -6 0 -11 5 -11 10 0 6 2 10 4 10 3 0 8 -4 11 -10z
m-6498 -82 c-3 -7 -5 -2 -5 12 0 14 2 19 5 13 2 -7 2 -19 0 -25z m213 28 c0
-2 -7 -9 -15 -16 -12 -10 -15 -10 -15 4 0 9 7 16 15 16 8 0 15 -2 15 -4z m397
-28 c-3 -7 -5 -2 -5 12 0 14 2 19 5 13 2 -7 2 -19 0 -25z m-80 -4 c-3 -3 -12
-4 -19 -1 -8 3 -5 6 6 6 11 1 17 -2 13 -5z m-356 -117 c-10 -9 -11 -8 -5 6 3
10 9 15 12 12 3 -3 0 -11 -7 -18z m6279 -32 c0 -12 -19 -12 -23 0 -4 9 -1 12
9 8 7 -3 14 -7 14 -8z m-6206 -10 c11 -8 15 -15 10 -15 -6 0 -19 7 -30 15 -10
8 -14 14 -9 14 6 0 19 -6 29 -14z m6151 -25 c-3 -5 -10 -10 -16 -10 -5 0 -9 5
-9 10 0 6 7 10 16 10 8 0 12 -4 9 -10z m-6361 -219 c-2 -2 -4 1 -4 9 0 10 -3
10 -15 0 -23 -19 -18 -27 15 -22 29 4 36 -4 31 -32 -1 -5 5 -6 12 -3 11 4 13
0 10 -14 -4 -14 -9 -17 -16 -10 -6 6 -14 6 -21 -2 -10 -8 -8 -16 7 -34 11 -12
25 -20 30 -16 6 3 7 1 3 -5 -4 -7 -2 -10 6 -7 16 6 45 -11 35 -21 -3 -4 -15
-1 -24 7 -16 13 -17 12 -4 -3 22 -29 2 -21 -34 13 -18 17 -43 53 -55 80 -22
46 -22 49 -6 74 9 14 12 25 7 25 -6 0 -15 -8 -20 -17 -9 -15 -10 -12 -11 15 0
18 5 43 11 54 10 19 13 16 29 -33 10 -30 17 -56 14 -58z m6604 -60 c-4 9 -1
16 7 16 11 0 11 -6 -1 -29 -8 -15 -19 -28 -24 -28 -6 0 -10 -4 -10 -10 0 -13
-31 -49 -53 -62 -14 -7 -23 -5 -38 8 -10 9 -19 22 -19 28 0 6 5 4 10 -4 7 -10
10 -11 11 -2 1 6 3 17 4 22 1 6 3 12 4 15 0 3 10 -4 22 -16 17 -17 23 -18 36
-8 9 8 13 24 11 41 -4 27 -4 28 16 10 l20 -17 -18 30 -19 30 23 -20 c18 -15
22 -16 18 -4z m-6521 -54 c-7 -5 -3 -6 10 -2 22 6 41 -9 24 -19 -11 -7 -61 14
-61 25 0 5 -6 6 -14 3 -7 -3 -16 2 -19 10 -4 10 -1 13 8 9 8 -3 18 2 21 11 5
13 9 12 24 -7 13 -16 15 -24 7 -30z m56 -33 c-5 -13 -1 -15 18 -10 19 6 21 5
7 -4 -17 -10 -48 -4 -48 10 0 7 7 12 27 19 1 1 0 -6 -4 -15z m107 -44 c0 -5
-5 -12 -12 -16 -6 -4 -8 -3 -5 3 9 15 -19 24 -51 17 -26 -6 -26 -6 -8 9 15 11
27 12 48 5 15 -6 28 -14 28 -18z m-140 9 c0 -5 5 -7 12 -3 7 5 8 3 3 -6 -6
-10 -4 -12 9 -7 10 4 15 3 11 -3 -3 -6 -1 -10 6 -10 7 0 10 -3 7 -6 -8 -8 -68
24 -68 36 0 6 5 10 10 10 6 0 10 -5 10 -11z m105 -19 c3 -5 -1 -10 -9 -10 -9
0 -16 5 -16 10 0 6 4 10 9 10 6 0 13 -4 16 -10z m6146 -23 c-10 -9 -11 -8 -5
6 3 10 9 15 12 12 3 -3 0 -11 -7 -18z m-6128 -4 c3 -5 -6 -9 -20 -10 -19 -1
-22 1 -12 8 17 11 26 11 32 2z m6178 -11 c-7 -2 -18 1 -23 6 -8 8 -4 9 13 5
13 -4 18 -8 10 -11z m11 -348 l-57 -77 -5 59 c-3 33 -2 63 1 67 3 5 28 12 55
16 27 5 52 9 56 10 4 0 -19 -33 -50 -75z m988 25 c51 -28 105 -94 120 -147 16
-58 12 -159 -10 -250 -21 -89 -75 -223 -170 -424 l-22 -47 -107 94 -107 94 62
126 c112 227 160 390 144 491 -5 29 -14 62 -19 73 -6 11 -11 22 -11 24 0 11
81 -12 120 -34z m-311 15 c59 -42 70 -138 31 -264 -22 -71 -148 -330 -160
-330 -4 0 -45 18 -91 39 -46 22 -110 47 -141 56 -34 10 -55 21 -53 28 110 355
140 404 281 462 70 29 101 31 133 9z m-7523 -319 c83 -24 179 -95 315 -231
128 -127 129 -129 129 -174 l0 -46 -57 -18 c-84 -27 -227 -103 -323 -173 -85
-61 -238 -202 -279 -257 l-22 -30 -55 55 c-186 182 -272 359 -262 535 11 169
144 317 318 354 57 12 171 5 236 -15z m6788 -76 c-29 -88 -38 -99 -81 -99 -45
0 -135 -26 -198 -58 -64 -32 -170 -140 -215 -219 l-35 -61 -141 -70 -142 -69
80 91 c122 139 259 359 297 479 7 20 16 37 20 37 4 0 33 -9 64 -19 73 -26 159
-21 254 12 40 14 80 30 90 36 30 18 31 13 7 -60z m-5872 -44 c58 -44 72 -86
79 -250 13 -277 71 -404 233 -513 l74 -50 -137 -4 c-148 -6 -244 -29 -366 -90
-184 -93 -365 -286 -451 -482 -15 -36 -34 -66 -40 -66 -7 0 -27 12 -46 27 -56
45 -188 177 -188 188 0 13 146 157 227 223 112 91 250 182 348 228 52 25 95
47 95 48 0 2 -18 42 -40 89 -74 158 -103 334 -79 481 14 89 48 145 109 178 46
25 143 21 182 -7z m481 -456 l85 -96 -84 33 c-47 18 -104 43 -128 55 l-44 21
-6 77 c-4 42 -9 96 -12 121 l-6 45 55 -80 c31 -44 94 -123 140 -176z m5718
235 c134 -39 316 -158 478 -312 l102 -97 -41 -73 -41 -73 -81 73 c-135 122
-238 201 -353 271 -33 20 -75 50 -93 67 -36 34 -95 136 -87 151 9 14 54 11
116 -7z m-361 -29 c56 -16 92 -73 92 -146 0 -59 -31 -130 -117 -260 l-65 -99
73 -36 c153 -77 370 -239 506 -377 l64 -65 -31 -39 c-38 -48 -92 -98 -161
-152 l-55 -43 -42 91 c-126 268 -351 465 -614 536 -53 14 -200 25 -337 25 -30
0 142 87 194 98 35 7 39 12 59 70 44 128 174 310 260 363 42 25 113 49 134 44
8 -2 26 -7 40 -10z m-6256 -332 c19 -57 25 -88 18 -91 -27 -9 -182 -107 -251
-159 -41 -31 -126 -107 -188 -168 l-113 -111 -56 78 -56 78 40 47 c101 121
256 253 392 333 56 34 157 79 175 79 6 0 23 -39 39 -86z m6603 0 c136 -83 329
-242 393 -323 l31 -39 -51 -76 c-28 -41 -53 -75 -56 -75 -2 0 -33 27 -67 59
-114 108 -239 210 -339 276 -55 36 -98 69 -96 74 2 4 19 42 38 84 41 89 36 89
147 20z m-857 -534 c106 -13 176 -38 256 -89 97 -64 216 -202 198 -231 -4 -7
-3 -10 3 -6 11 7 26 -21 54 -101 10 -29 14 -50 9 -47 -6 4 -10 2 -10 -4 0 -5
4 -11 8 -13 5 -1 3 -16 -5 -33 l-13 -30 6 33 c3 20 2 32 -6 32 -8 0 -8 6 0 20
8 16 8 20 -2 18 -7 -2 -18 -14 -25 -28 -6 -14 -12 -20 -12 -15 -1 6 -5 16 -10
24 -7 11 -14 8 -35 -15 -23 -27 -25 -37 -27 -129 -1 -103 -7 -96 -24 30 -6 46
-8 48 -21 30 -8 -10 -14 -13 -14 -7 0 9 -34 12 -120 12 -111 0 -120 1 -120 19
0 16 -11 20 -77 26 -54 5 -78 4 -81 -4 -2 -6 -8 -11 -13 -11 -5 0 -4 9 3 20 7
10 9 23 5 27 -5 4 -11 2 -15 -4 -14 -23 -32 -17 -50 17 -22 41 -52 52 -52 21
0 -12 -5 -21 -11 -21 -6 0 -9 7 -6 14 4 9 1 13 -6 10 -7 -2 -21 3 -32 12 -20
16 -20 16 0 9 16 -5 18 -4 8 6 -9 9 -16 10 -23 3 -10 -10 55 -75 66 -65 4 3 4
-2 1 -11 -4 -12 -2 -15 9 -11 11 4 12 9 3 19 -7 8 -7 14 -1 14 5 0 15 -7 22
-15 9 -11 10 -15 1 -15 -8 0 -10 -9 -7 -22 3 -13 3 -17 0 -10 -3 6 -10 12 -15
12 -12 0 -11 -27 1 -33 6 -3 5 -4 -2 -3 -7 1 -34 -25 -60 -60 -50 -66 -92
-104 -115 -104 -7 0 -30 11 -51 23 -67 43 -140 62 -232 62 -71 -1 -95 -5 -145
-28 -124 -58 -197 -169 -197 -301 -1 -152 82 -275 222 -330 81 -32 267 -18
298 22 6 9 12 40 12 69 l0 52 -96 3 c-93 3 -98 4 -118 31 -16 22 -22 46 -24
112 -2 46 1 91 7 102 7 14 7 23 0 30 -8 8 -7 13 2 18 8 5 10 4 5 -3 -13 -22
11 -12 28 11 10 14 14 16 10 4 -5 -12 -2 -16 9 -11 21 8 406 10 401 3 -2 -4 8
-10 21 -13 15 -4 30 -18 35 -32 6 -14 10 -142 10 -284 l0 -258 -27 -33 c-63
-75 -277 -141 -451 -140 -209 0 -362 64 -494 206 -92 100 -137 200 -158 356
-12 83 -4 207 15 253 6 14 5 17 -3 12 -8 -5 -12 1 -12 16 l-1 23 -14 -25 c-8
-14 -14 -20 -14 -15 0 6 6 21 13 34 11 19 14 21 19 7 10 -24 30 -20 22 5 -5
15 -4 19 4 15 11 -7 15 5 12 32 -1 6 4 12 10 12 7 0 9 3 6 6 -4 4 -13 1 -22
-6 -9 -7 -18 -10 -22 -6 -3 3 -1 6 6 6 7 0 9 5 5 12 -4 6 -3 8 4 4 6 -3 17 0
25 8 8 8 18 12 21 8 4 -3 4 2 0 12 -4 12 -4 17 2 13 5 -3 10 2 10 12 0 20 -33
22 -76 4 -32 -14 -43 -7 -30 18 6 11 8 23 5 28 -3 5 -48 7 -100 4 -92 -6 -95
-5 -95 16 0 31 -22 26 -42 -10 -15 -26 -20 -28 -38 -19 -14 8 -19 17 -15 30 7
22 -6 32 -25 20 -12 -8 -12 -11 1 -27 8 -10 21 -30 28 -45 8 -15 19 -25 24
-21 6 4 7 1 3 -6 -5 -7 -1 -20 7 -29 17 -21 57 -132 66 -187 3 -22 6 -89 6
-150 0 -181 -57 -317 -187 -447 -126 -125 -293 -185 -483 -174 -179 9 -303 64
-426 187 -118 116 -177 254 -182 419 -3 106 9 218 24 237 12 14 12 16 -1 8
-13 -7 -13 -6 -2 7 7 8 10 24 6 34 -5 16 -4 16 5 4 6 -8 11 -10 12 -5 1 6 2
15 4 20 1 6 3 16 3 23 1 7 7 10 14 6 6 -4 8 -3 5 3 -4 6 0 19 7 29 10 12 11
24 5 36 -5 9 -7 23 -4 30 2 7 -2 21 -10 32 -13 18 -15 18 -44 -4 -17 -12 -31
-28 -31 -36 0 -8 -7 -14 -15 -14 -8 0 -15 7 -15 15 0 15 -33 17 -300 20 -87 1
-90 2 -90 25 0 17 -7 20 -40 20 -37 0 -40 2 -40 27 0 29 -15 22 -23 -12 -3
-11 -6 0 -7 25 l-3 45 -7 -45 -7 -45 -1 43 c-1 23 -6 42 -12 42 -7 0 -10 -152
-10 -435 l0 -435 191 0 191 0 34 -34 c32 -32 34 -38 34 -105 0 -38 -5 -81 -12
-95 -23 -51 -32 -53 -364 -61 -341 -8 -346 -7 -372 51 -9 18 -12 181 -12 572
-1 474 -3 544 -15 521 -8 -14 -18 -80 -23 -150 l-9 -124 -3 90 c-2 62 -5 79
-9 55 -5 -28 -8 -31 -14 -17 -4 10 -8 33 -8 50 -2 30 -2 29 -9 -8 -4 -22 -8
-32 -9 -22 -1 13 -10 17 -41 17 -29 0 -40 4 -40 15 0 11 -11 15 -40 15 -22 0
-40 -4 -40 -10 0 -5 -4 -10 -10 -10 -5 0 -10 9 -10 20 0 11 -5 20 -11 20 -7 0
-9 -10 -5 -25 3 -14 9 -36 12 -50 4 -15 2 -25 -5 -25 -6 0 -11 11 -11 25 0 16
-6 25 -16 25 -11 0 -13 6 -9 19 4 14 0 23 -15 31 -29 16 -34 -4 -15 -65 35
-117 7 -241 -74 -329 -27 -28 -41 -51 -34 -53 29 -10 95 -67 122 -104 99 -136
35 -381 -123 -474 -90 -53 -118 -57 -452 -62 -195 -2 -320 0 -337 6 -58 22
-56 6 -57 614 -1 550 -1 556 -21 544 -25 -16 -33 -41 -20 -66 6 -11 11 -30 10
-43 0 -22 -1 -22 -9 -3 -5 12 -7 -25 -5 -90 3 -104 3 -106 -4 -23 -3 47 -10
90 -15 95 -5 4 -5 -8 -1 -27 7 -34 7 -35 -12 -17 -11 9 -24 17 -30 17 -6 0
-13 7 -17 15 -4 11 -20 15 -56 15 -43 0 -50 3 -50 20 0 17 -7 20 -47 21 -90 3
-193 -9 -193 -22 0 -11 -29 -40 -56 -55 -10 -6 -22 -22 -26 -35 -4 -14 -5 1
-3 35 2 32 1 65 -2 72 -7 19 -33 17 -49 -3 -13 -17 -13 -17 -14 0 0 11 -4 15
-12 11 -8 -5 -9 -2 -5 9 9 25 -7 29 -22 5 -7 -11 -8 -17 -2 -14 6 4 9 1 5 -7
-3 -8 -14 -17 -25 -20 -19 -5 -25 3 -12 16 3 4 8 20 9 36 9 79 78 211 154 295
97 105 229 172 370 186 122 12 5022 12 5120 -1z m-3995 -508 c3 -5 1 -12 -5
-16 -5 -3 -10 1 -10 9 0 18 6 21 15 7z m2395 -11 c0 -5 -5 -10 -11 -10 -5 0
-7 5 -4 10 3 6 8 10 11 10 2 0 4 -4 4 -10z m86 -27 c-10 -10 -19 5 -10 18 6
11 8 11 12 0 2 -7 1 -15 -2 -18z m2051 -5 c-3 -8 -6 -5 -6 6 -1 11 2 17 5 13
3 -3 4 -12 1 -19z m-6175 -21 c-6 -12 -13 -38 -15 -57 -3 -32 -4 -31 -5 8 -1
24 3 52 9 64 15 27 25 14 11 -15z m2935 11 c-3 -8 -6 -5 -6 6 -1 11 2 17 5 13
3 -3 4 -12 1 -19z m-580 -50 c-3 -7 -5 -2 -5 12 0 14 2 19 5 13 2 -7 2 -19 0
-25z m592 18 c12 -15 2 -27 -33 -40 -11 -4 -16 -12 -12 -22 3 -8 2 -12 -4 -9
-9 6 -27 -70 -21 -90 1 -5 -1 -7 -5 -3 -10 11 -13 68 -3 68 5 0 9 17 9 37 0
56 42 92 69 59z m1175 -1 c-4 -8 -10 -15 -15 -15 -4 0 -5 -7 -2 -17 4 -11 3
-14 -5 -9 -16 10 -15 22 4 40 19 20 25 20 18 1z m1876 -25 c0 -22 -4 -40 -10
-40 -5 0 -10 18 -10 40 0 22 5 40 10 40 6 0 10 -18 10 -40z m-1590 0 c-6 -12
-14 -20 -17 -17 -2 3 1 14 8 26 17 26 24 19 9 -9z m-243 -142 c-3 -8 -6 -5 -6
6 -1 11 2 17 5 13 3 -3 4 -12 1 -19z m-3942 -644 c63 -147 132 -220 258 -275
43 -18 57 -29 57 -45 0 -32 -24 -47 -64 -40 -49 9 -174 94 -224 152 -83 97
-134 231 -102 269 23 28 43 11 75 -61z m5790 62 c16 -12 17 -18 6 -60 -35
-141 -123 -253 -253 -321 -84 -44 -129 -52 -153 -25 -9 10 -14 23 -11 28 3 6
48 30 100 56 112 54 181 122 215 213 51 132 56 138 96 109z"/>
<path d="M5038 9058 c6 -6 18 -8 28 -6 14 3 12 5 -9 10 -19 3 -25 2 -19 -4z"/>
<path d="M5431 9051 c-10 -6 1 -8 30 -4 24 3 46 7 48 9 10 9 -65 3 -78 -5z"/>
<path d="M4948 9043 c-22 -5 -24 -23 -3 -23 8 0 15 4 15 9 0 5 8 12 18 14 11
3 12 5 2 5 -8 0 -23 -2 -32 -5z"/>
<path d="M5208 9043 c6 -2 18 -2 25 0 6 3 1 5 -13 5 -14 0 -19 -2 -12 -5z"/>
<path d="M5558 9043 c7 -3 16 -2 19 1 4 3 -2 6 -13 5 -11 0 -14 -3 -6 -6z"/>
<path d="M5450 9019 c0 -5 5 -7 10 -4 6 3 10 8 10 11 0 2 -4 4 -10 4 -5 0 -10
-5 -10 -11z"/>
<path d="M5690 9020 c-9 -6 -10 -10 -3 -10 6 0 15 5 18 10 8 12 4 12 -15 0z"/>
<path d="M5728 9013 c6 -2 18 -2 25 0 6 3 1 5 -13 5 -14 0 -19 -2 -12 -5z"/>
<path d="M4535 9000 c-17 -6 -16 -7 8 -12 15 -3 30 -2 32 2 7 12 -18 18 -40
10z"/>
<path d="M5818 8994 c12 -8 30 -13 40 -11 13 4 12 5 -5 6 -12 0 -25 6 -28 11
-3 6 -11 10 -18 10 -6 0 -1 -7 11 -16z"/>
<path d="M4598 8993 c7 -3 16 -2 19 1 4 3 -2 6 -13 5 -11 0 -14 -3 -6 -6z"/>
<path d="M4475 8980 c3 -5 8 -10 11 -10 2 0 4 5 4 10 0 6 -5 10 -11 10 -5 0
-7 -4 -4 -10z"/>
<path d="M5960 8960 c0 -5 5 -10 10 -10 6 0 10 5 10 10 0 6 -4 10 -10 10 -5 0
-10 -4 -10 -10z"/>
<path d="M6028 8963 c6 -2 18 -2 25 0 6 3 1 5 -13 5 -14 0 -19 -2 -12 -5z"/>
<path d="M6074 8959 c-4 -8 -3 -9 4 -5 7 4 12 1 12 -8 0 -9 5 -16 10 -16 14 0
12 16 -4 29 -11 9 -16 9 -22 0z"/>
<path d="M4260 8940 l-25 -8 27 -1 c15 -1 30 4 33 9 7 11 0 11 -35 0z"/>
<path d="M5598 8943 c7 -3 16 -2 19 1 4 3 -2 6 -13 5 -11 0 -14 -3 -6 -6z"/>
<path d="M6195 8920 c-9 -14 24 -25 37 -12 8 8 4 9 -13 6 -19 -5 -21 -4 -9 5
9 7 10 11 3 11 -6 0 -15 -5 -18 -10z"/>
<path d="M6420 8854 l-25 -15 25 7 c28 7 35 12 29 18 -2 2 -15 -2 -29 -10z"/>
<path d="M6654 8779 c-3 -6 0 -15 7 -20 18 -11 21 -11 39 2 12 8 10 9 -9 4
-15 -5 -21 -3 -17 3 3 6 2 13 -3 16 -5 4 -13 1 -17 -5z"/>
<path d="M3625 8730 c-3 -5 1 -10 9 -10 8 0 18 5 21 10 3 6 -1 10 -9 10 -8 0
-18 -4 -21 -10z"/>
<path d="M7115 8560 c3 -5 8 -10 11 -10 2 0 4 5 4 10 0 6 -5 10 -11 10 -5 0
-7 -4 -4 -10z"/>
<path d="M7795 8080 c-3 -5 -1 -10 4 -10 6 0 11 5 11 10 0 6 -2 10 -4 10 -3 0
-8 -4 -11 -10z"/>
<path d="M4068 6903 c7 -3 16 -2 19 1 4 3 -2 6 -13 5 -11 0 -14 -3 -6 -6z"/>
<path d="M4183 6903 c15 -2 37 -2 50 0 12 2 0 4 -28 4 -27 0 -38 -2 -22 -4z"/>
<path d="M5092 6904 c15 -14 1002 -29 993 -14 -3 5 14 11 37 13 24 2 -200 4
-496 5 -297 1 -537 0 -534 -4z"/>
<path d="M6580 6890 c8 -5 20 -10 25 -10 6 0 3 5 -5 10 -8 5 -19 10 -25 10 -5
0 -3 -5 5 -10z"/>
<path d="M3690 6843 c-74 -13 -163 -48 -230 -89 -140 -86 -228 -183 -300 -329
-84 -173 -83 -162 -81 -710 2 -537 5 -559 71 -700 79 -170 219 -305 380 -369
117 -46 101 -46 1695 -46 1669 0 1612 -2 1750 65 139 68 265 195 335 340 77
160 75 138 75 715 l0 515 -27 80 c-79 232 -265 421 -494 502 l-79 28 -1535 1
c-844 1 -1546 0 -1560 -3z m558 -448 c46 -9 115 -34 171 -61 158 -78 293 -232
358 -410 23 -65 45 -215 38 -264 -33 -220 -53 -280 -142 -411 -51 -76 -118
-129 -238 -189 -131 -66 -218 -84 -379 -78 -107 4 -131 9 -203 37 -196 77
-314 195 -387 389 -48 125 -60 203 -53 337 7 129 24 193 78 293 21 41 37 77
34 82 -2 4 2 30 10 58 19 63 67 103 134 110 25 2 53 11 61 18 23 20 123 62
198 84 83 23 216 25 320 5z m2265 0 c82 -14 200 -64 265 -112 117 -86 220
-225 270 -365 23 -65 26 -88 27 -208 0 -114 -4 -146 -23 -210 -13 -41 -29 -81
-35 -89 -9 -12 -9 -13 1 -7 18 11 15 -1 -20 -67 -36 -68 -159 -203 -226 -249
-147 -101 -416 -139 -600 -84 -122 37 -205 87 -297 181 -205 207 -260 510
-145 799 16 42 36 87 44 99 8 12 17 44 21 72 11 80 81 135 170 135 13 0 56 18
97 39 139 75 283 96 451 66z"/>
<path d="M4220 6262 c0 -4 11 -29 25 -56 69 -137 -10 -307 -157 -338 -117 -25
-234 34 -274 137 l-16 44 -35 -26 c-22 -17 -51 -28 -82 -31 -45 -4 -50 -7 -65
-41 -27 -64 -36 -114 -36 -209 0 -154 47 -262 169 -383 58 -58 138 -112 159
-107 4 1 20 -4 37 -11 45 -19 165 -24 252 -11 205 31 376 181 428 375 31 117
16 274 -36 378 -48 94 -144 189 -244 240 -55 27 -125 49 -125 39z m-428 -680
c126 -209 403 -241 581 -66 47 46 85 119 93 178 5 33 10 43 23 40 75 -14 69
-6 67 -91 -2 -97 -26 -153 -96 -227 -176 -186 -511 -194 -688 -16 -70 71 -115
162 -116 236 0 53 2 58 39 92 l39 36 12 -64 c8 -34 28 -88 46 -118z"/>
<path d="M6479 6244 c33 -42 54 -120 48 -176 -16 -129 -125 -218 -252 -205
-98 10 -183 75 -205 156 l-10 39 -31 -29 c-21 -20 -45 -30 -79 -35 -54 -7 -61
-17 -85 -118 -40 -169 9 -358 127 -490 54 -61 102 -93 199 -132 89 -36 259
-39 364 -7 208 65 344 242 358 468 6 93 -5 157 -44 250 -53 128 -198 255 -332
291 -75 20 -82 18 -58 -12z m-456 -545 c12 -93 102 -210 198 -259 20 -11 66
-25 103 -31 186 -35 394 104 422 280 6 38 9 41 40 41 37 0 54 -21 54 -68 0
-42 -28 -131 -58 -182 -15 -25 -25 -49 -24 -53 1 -5 -1 -6 -6 -3 -4 2 -25 -13
-46 -35 -80 -82 -226 -127 -379 -116 -205 14 -392 189 -391 364 1 69 20 103
59 103 19 0 23 -7 28 -41z"/>
<path d="M6995 5379 c-4 -6 -5 -12 -2 -15 2 -3 7 2 10 11 7 17 1 20 -8 4z"/>
<path d="M5627 4295 c-20 -7 -56 -33 -81 -58 -110 -114 -302 -154 -471 -98
-72 24 -140 65 -165 101 -39 55 -114 76 -174 48 -27 -12 -66 -80 -66 -114 0
-38 52 -124 102 -169 65 -59 154 -107 248 -137 96 -30 288 -32 390 -5 136 36
291 134 347 218 21 31 27 54 27 95 1 47 -3 57 -29 84 -40 40 -81 51 -128 35z"/>
<path d="M7120 7450 c0 -5 5 -10 11 -10 5 0 7 5 4 10 -3 6 -8 10 -11 10 -2 0
-4 -4 -4 -10z"/>
<path d="M2557 6645 c3 -44 7 -82 9 -84 8 -8 2 115 -6 139 -5 14 -6 -9 -3 -55z"/>
<path d="M1930 5820 c0 -5 5 -10 10 -10 6 0 10 5 10 10 0 6 -4 10 -10 10 -5 0
-10 -4 -10 -10z"/>
<path d="M1968 5793 c7 -3 16 -2 19 1 4 3 -2 6 -13 5 -11 0 -14 -3 -6 -6z"/>
<path d="M1980 5760 c0 -5 5 -10 10 -10 6 0 10 5 10 10 0 6 -4 10 -10 10 -5 0
-10 -4 -10 -10z"/>
<path d="M2173 5480 c0 -25 2 -35 4 -22 2 12 2 32 0 45 -2 12 -4 2 -4 -23z"/>
<path d="M8510 6416 c0 -7 50 -13 55 -7 2 4 -10 8 -26 9 -16 1 -29 1 -29 -2z"/>
<path d="M8522 6365 c0 -16 2 -22 5 -12 2 9 2 23 0 30 -3 6 -5 -1 -5 -18z"/>
<path d="M8325 5660 c3 -5 8 -10 11 -10 2 0 4 5 4 10 0 6 -5 10 -11 10 -5 0
-7 -4 -4 -10z"/>
<path d="M1910 5122 c0 -15 28 -23 36 -9 4 7 4 9 -1 5 -4 -4 -14 -3 -22 3 -8
7 -13 8 -13 1z"/>
<path d="M8447 5014 c4 -10 0 -12 -13 -8 -14 5 -16 4 -8 -5 11 -12 44 -5 44 9
0 4 -7 10 -14 13 -10 4 -13 1 -9 -9z"/>
<path d="M1990 5071 c0 -5 5 -13 10 -16 6 -3 10 -2 10 4 0 5 -4 13 -10 16 -5
3 -10 2 -10 -4z"/>
<path d="M5505 2740 c3 -5 8 -10 11 -10 2 0 4 5 4 10 0 6 -5 10 -11 10 -5 0
-7 -4 -4 -10z"/>
<path d="M7018 2743 c7 -3 16 -2 19 1 4 3 -2 6 -13 5 -11 0 -14 -3 -6 -6z"/>
<path d="M2771 2704 c0 -11 3 -14 6 -6 3 7 2 16 -1 19 -3 4 -6 -2 -5 -13z"/>
<path d="M4097 2698 c19 -21 31 -25 14 -5 -6 8 -9 16 -6 19 3 2 -2 5 -10 5
-13 0 -13 -3 2 -19z"/>
<path d="M5356 2693 c-6 -14 -5 -15 5 -6 7 7 10 15 7 18 -3 3 -9 -2 -12 -12z"/>
<path d="M7494 2691 c21 -23 26 -26 26 -11 0 5 -10 15 -22 21 -23 12 -23 12
-4 -10z"/>
<path d="M7433 2680 c14 -11 28 -20 32 -20 4 0 -4 9 -18 20 -14 11 -28 20 -32
20 -4 0 4 -9 18 -20z"/>
<path d="M5285 2671 c-3 -5 -2 -12 3 -15 5 -3 9 1 9 9 0 17 -3 19 -12 6z"/>
<path d="M5970 2676 c0 -2 7 -7 16 -10 8 -3 12 -2 9 4 -6 10 -25 14 -25 6z"/>
<path d="M3712 2633 c-6 -3 -9 -9 -6 -15 4 -6 10 -5 16 3 5 9 6 4 2 -13 -4
-18 -2 -28 5 -28 6 0 11 4 11 9 0 5 3 16 6 24 6 16 -13 27 -34 20z"/>
<path d="M5198 2626 c-10 -7 -18 -17 -18 -21 0 -4 6 -2 14 4 9 8 16 8 20 2 4
-5 -2 -12 -13 -16 -11 -3 -27 -18 -36 -33 l-17 -27 23 23 c13 12 35 31 49 42
14 11 18 19 10 18 -8 -2 -14 3 -12 10 3 15 1 15 -20 -2z"/>
<path d="M6028 2627 c7 -8 8 -17 4 -21 -4 -4 -2 -7 3 -6 22 5 36 -1 29 -12 -4
-6 -3 -8 3 -5 11 7 10 43 -2 54 -4 5 -5 3 -1 -4 3 -6 2 -14 -4 -18 -5 -3 -10
-2 -10 3 0 6 -7 13 -16 16 -13 5 -14 4 -6 -7z"/>
<path d="M2120 2599 c0 -5 5 -7 10 -4 6 3 10 8 10 11 0 2 -4 4 -10 4 -5 0 -10
-5 -10 -11z"/>
<path d="M5142 2588 c-7 -7 -12 -17 -12 -24 0 -7 -5 -14 -12 -16 -7 -3 -6 -7
5 -11 12 -4 17 -1 17 11 0 10 5 23 12 30 6 6 9 14 7 17 -3 2 -11 -1 -17 -7z"/>
<path d="M4960 2545 c0 -8 5 -15 10 -15 6 0 10 7 10 15 0 8 -4 15 -10 15 -5 0
-10 -7 -10 -15z"/>
<path d="M6170 2550 c0 -5 7 -10 15 -10 8 0 15 5 15 10 0 6 -7 10 -15 10 -8 0
-15 -4 -15 -10z"/>
<path d="M6576 2551 c-4 -5 -2 -12 3 -15 5 -4 12 -2 15 3 4 5 2 12 -3 15 -5 4
-12 2 -15 -3z"/>
<path d="M5086 2493 c-4 -9 -2 -20 4 -25 5 -4 8 -5 5 -2 -2 4 0 15 6 25 6 11
6 19 0 19 -5 0 -12 -8 -15 -17z"/>
<path d="M6563 2483 c0 -9 4 -10 14 -2 7 6 13 12 13 14 0 1 -6 2 -13 2 -8 0
-14 -6 -14 -14z"/>
<path d="M3100 2340 l0 -100 146 0 c107 0 143 3 138 12 -4 7 -3 8 5 4 16 -10
41 12 58 52 11 27 12 41 3 68 -20 59 -37 64 -202 64 l-148 0 0 -100z"/>
<path d="M5502 2409 c-64 -25 -139 -96 -172 -164 -21 -42 -25 -64 -25 -145 0
-83 3 -102 27 -151 35 -70 84 -121 151 -157 45 -23 63 -27 142 -27 73 0 98 4
136 23 61 30 132 91 125 108 -3 8 0 13 7 11 7 -1 11 4 9 11 -1 6 2 12 7 12 22
0 46 96 46 180 0 73 -4 93 -28 142 -34 70 -101 131 -173 158 -73 27 -180 26
-252 -1z"/>
<path d="M3094 1956 c-4 -11 0 -161 5 -183 1 -2 77 -3 169 -3 168 0 169 0 193
26 35 38 34 104 -4 141 l-27 28 -165 3 c-142 3 -166 1 -171 -12z"/>
<path d="M5040 2454 c0 -8 5 -12 10 -9 6 4 8 11 5 16 -9 14 -15 11 -15 -7z"/>
</g>
</svg>
